<svg width="19" height="16" viewBox="0 0 19 16" fill="none" xmlns="http://www.w3.org/2000/svg">
<path d="M17.3035 15.5C17.7305 15.5 18.1006 15.3583 18.4152 15.0785L13.0322 9.66958C12.9031 9.7625 12.7779 9.85286 12.6596 9.93879C12.2568 10.237 11.9298 10.4697 11.6788 10.6365C11.4277 10.8036 11.0938 10.974 10.6768 11.1479C10.2597 11.322 9.871 11.4088 9.51045 11.4088H9.48934C9.12876 11.4088 8.74009 11.3221 8.32294 11.1479C7.90578 10.974 7.57179 10.8036 7.32101 10.6365C7.06999 10.4697 6.74321 10.237 6.34016 9.93879C6.22785 9.85605 6.10328 9.76528 5.96861 9.66812L0.584572 15.0785C0.899138 15.3583 1.26945 15.5 1.6965 15.5H17.3035Z" fill="url(#paint0_linear_121:722)"/>
<path d="M1.07099 6.26356C0.66818 5.99373 0.310978 5.68469 0 5.3366V13.5659L4.74456 8.79863C3.79538 8.1328 2.57241 7.28875 1.07099 6.26356Z" fill="url(#paint1_linear_121:722)"/>
<path d="M17.9397 6.26356C16.4956 7.2457 15.2682 8.09121 14.2573 8.80054L19 13.5661V5.3366C18.6959 5.67769 18.3425 5.98652 17.9397 6.26356Z" fill="url(#paint2_linear_121:722)"/>
<path d="M17.3034 0.5H1.69652C1.15204 0.5 0.733441 0.68474 0.440194 1.05384C0.146705 1.42311 0.000202123 1.88493 0.000202123 2.43877C0.000202123 2.88613 0.194619 3.37086 0.583281 3.89309C0.971943 4.41511 1.38551 4.82515 1.82378 5.1234C2.06404 5.29397 2.78859 5.80008 3.99741 6.64157C4.64997 7.09593 5.21746 7.49196 5.70512 7.83372C6.12079 8.12473 6.47927 8.37674 6.77524 8.58588C6.80922 8.60983 6.86265 8.64824 6.93358 8.69919C7.00998 8.75433 7.10668 8.82431 7.22596 8.91086C7.45567 9.07779 7.6465 9.21272 7.79849 9.3158C7.95027 9.41891 8.13416 9.53409 8.3499 9.66199C8.56546 9.78971 8.76878 9.88576 8.95961 9.94964C9.15047 10.0135 9.32716 10.0455 9.4897 10.0455H9.51081C9.67332 10.0455 9.85004 10.0135 10.0409 9.94964C10.2317 9.88576 10.4349 9.78992 10.6506 9.66199C10.8661 9.53409 11.0498 9.41867 11.2021 9.3158C11.3541 9.21272 11.5449 9.07782 11.7746 8.91086C11.8937 8.82431 11.9904 8.7543 12.0668 8.69936C12.1377 8.6482 12.1911 8.61004 12.2253 8.58588C12.4559 8.42468 12.8152 8.1737 13.2983 7.83666C14.1773 7.223 15.4718 6.31978 17.1874 5.1234C17.7033 4.7613 18.1344 4.32434 18.4808 3.81313C18.8266 3.30192 19 2.76569 19 2.2046C19 1.73582 18.8319 1.33469 18.4964 1.0006C18.1606 0.666925 17.7629 0.5 17.3034 0.5Z" fill="url(#paint3_linear_121:722)"/>
<defs>
<linearGradient id="paint0_linear_121:722" x1="3.79021e-07" y1="0.49999" x2="20.4733" y2="2.89248" gradientUnits="userSpaceOnUse">
<stop stop-color="#6B4185"/>
<stop offset="1" stop-color="#4749A3"/>
</linearGradient>
<linearGradient id="paint1_linear_121:722" x1="3.79021e-07" y1="0.49999" x2="20.4733" y2="2.89248" gradientUnits="userSpaceOnUse">
<stop stop-color="#6B4185"/>
<stop offset="1" stop-color="#4749A3"/>
</linearGradient>
<linearGradient id="paint2_linear_121:722" x1="3.79021e-07" y1="0.49999" x2="20.4733" y2="2.89248" gradientUnits="userSpaceOnUse">
<stop stop-color="#6B4185"/>
<stop offset="1" stop-color="#4749A3"/>
</linearGradient>
<linearGradient id="paint3_linear_121:722" x1="3.79021e-07" y1="0.49999" x2="20.4733" y2="2.89248" gradientUnits="userSpaceOnUse">
<stop stop-color="#6B4185"/>
<stop offset="1" stop-color="#4749A3"/>
</linearGradient>
</defs>
</svg>
