<svg width="40" height="32" viewBox="0 0 40 32" fill="none" xmlns="http://www.w3.org/2000/svg">
<path d="M8.47059 0C11.1373 0 13.2941 0.966183 14.9412 2.89855C16.5882 4.83092 17.4118 7.65217 17.4118 11.3623C17.4118 18.628 14.8235 25.0048 9.64706 30.4928C8.70588 31.4976 7.60784 32 6.35294 32C5.2549 32 4.23529 31.6135 3.29412 30.8406C2.43137 29.9903 2 29.0242 2 27.942C2 27.0145 2.39216 26.1256 3.17647 25.2754C5.52941 22.8019 7.05882 20.0193 7.76471 16.9275C5.4902 16.6957 3.60784 15.8454 2.11765 14.3768C0.705882 12.8309 0 10.9372 0 8.69565C0 6.22222 0.784314 4.17391 2.35294 2.55073C4 0.850242 6.03922 0 8.47059 0ZM31.0588 0C33.7255 0 35.8824 0.966183 37.5294 2.89855C39.1765 4.83092 40 7.65217 40 11.3623C40 18.628 37.4118 25.0048 32.2353 30.4928C31.2941 31.4976 30.1961 32 28.9412 32C27.8431 32 26.8235 31.6135 25.8824 30.8406C25.0196 29.9903 24.5882 29.0242 24.5882 27.942C24.5882 27.0145 24.9804 26.1256 25.7647 25.2754C28.1176 22.8019 29.6471 20.0193 30.3529 16.9275C28.0784 16.6957 26.1961 15.8454 24.7059 14.3768C23.2941 12.8309 22.5882 10.9372 22.5882 8.69565C22.5882 6.22222 23.3726 4.17391 24.9412 2.55073C26.5882 0.850242 28.6275 0 31.0588 0Z" fill="#BC9ABF"/>
</svg>
