<svg width="26" height="16" viewBox="0 0 26 16" fill="none" xmlns="http://www.w3.org/2000/svg">
<path fill-rule="evenodd" clip-rule="evenodd" d="M12.7208 15.4372H14.2749C14.2749 15.4372 14.7443 15.3851 14.984 15.1238C15.2046 14.8839 15.1976 14.4335 15.1976 14.4335C15.1976 14.4335 15.1672 12.3246 16.135 12.014C17.0891 11.7081 18.3143 14.0522 19.6128 14.9535C20.5948 15.6357 21.341 15.4861 21.341 15.4861L24.8131 15.4372C24.8131 15.4372 26.6295 15.324 25.7682 13.8798C25.6976 13.7617 25.2667 12.8115 23.1866 10.8589C21.0095 8.81539 21.3011 9.14592 23.9236 5.61103C25.5208 3.45826 26.1593 2.14396 25.9599 1.58105C25.7697 1.0449 24.595 1.18661 24.595 1.18661L20.6855 1.21124C20.6855 1.21124 20.3957 1.17126 20.1808 1.3012C19.9707 1.42863 19.8356 1.72561 19.8356 1.72561C19.8356 1.72561 19.2168 3.39151 18.3916 4.80825C16.6507 7.79772 15.9547 7.95549 15.6702 7.76988C15.0084 7.33725 15.1736 6.03188 15.1736 5.10452C15.1736 2.2075 15.6081 0.999572 14.3275 0.686883C13.9025 0.58301 13.5898 0.514475 12.503 0.503409C11.1081 0.488774 9.92739 0.507692 9.25887 0.838944C8.81413 1.05918 8.47104 1.54999 8.68 1.57819C8.93837 1.61317 9.52359 1.73775 9.83385 2.16502C10.2345 2.71615 10.2204 3.95406 10.2204 3.95406C10.2204 3.95406 10.4505 7.36438 9.68278 7.78808C9.1558 8.07864 8.43292 7.48539 6.88092 4.77327C6.08568 3.38401 5.48529 1.8484 5.48529 1.8484C5.48529 1.8484 5.36951 1.56141 5.16303 1.40792C4.91242 1.22195 4.56228 1.1627 4.56228 1.1627L0.847288 1.18733C0.847288 1.18733 0.289599 1.20303 0.0848775 1.44826C-0.097254 1.66636 0.0704057 2.11754 0.0704057 2.11754C0.0704057 2.11754 2.97886 8.99886 6.27205 12.4666C9.29169 15.646 12.7208 15.4372 12.7208 15.4372Z" fill="url(#paint0_linear_121:697)"/>
<defs>
<linearGradient id="paint0_linear_121:697" x1="5.1866e-07" y1="0.49999" x2="27.6906" y2="4.92805" gradientUnits="userSpaceOnUse">
<stop stop-color="#6B4185"/>
<stop offset="1" stop-color="#4749A3"/>
</linearGradient>
</defs>
</svg>
