<svg width="25" height="25" viewBox="0 0 25 25" fill="none" xmlns="http://www.w3.org/2000/svg">
<path fill-rule="evenodd" clip-rule="evenodd" d="M12.2855 18.2843H13.4809C13.4809 18.2843 13.842 18.2438 14.0264 18.0406C14.1961 17.854 14.1907 17.5036 14.1907 17.5036C14.1907 17.5036 14.1673 15.8634 14.9118 15.6219C15.6457 15.3839 16.5881 17.2071 17.587 17.9081C18.3424 18.4387 18.9164 18.3224 18.9164 18.3224L21.5872 18.2843C21.5872 18.2843 22.9845 18.1963 22.322 17.073C22.2677 16.9811 21.9361 16.2421 20.3361 14.7235C18.6614 13.134 18.8857 13.3911 20.903 10.6418C22.1316 8.96737 22.6228 7.94514 22.4694 7.50732C22.3231 7.09032 21.4195 7.20054 21.4195 7.20054L18.4122 7.21969C18.4122 7.21969 18.1893 7.1886 18.0239 7.28966C17.8624 7.38877 17.7584 7.61976 17.7584 7.61976C17.7584 7.61976 17.2824 8.91545 16.6476 10.0174C15.3085 12.3425 14.7731 12.4652 14.5542 12.3209C14.0451 11.9844 14.1722 10.9691 14.1722 10.2478C14.1722 7.99456 14.5064 7.05506 13.5214 6.81186C13.1945 6.73107 12.9539 6.67776 12.1179 6.66916C11.0449 6.65777 10.1367 6.67249 9.62245 6.93013C9.28034 7.10142 9.01643 7.48316 9.17717 7.5051C9.37592 7.5323 9.82609 7.6292 10.0647 7.96152C10.3729 8.39018 10.3621 9.353 10.3621 9.353C10.3621 9.353 10.5391 12.0055 9.94854 12.335C9.54317 12.561 8.98711 12.0996 7.79326 9.99015C7.18154 8.90962 6.7197 7.71526 6.7197 7.71526C6.7197 7.71526 6.63064 7.49205 6.4718 7.37267C6.27903 7.22802 6.00969 7.18194 6.00969 7.18194L3.152 7.20109C3.152 7.20109 2.72301 7.21331 2.56553 7.40404C2.42543 7.57367 2.5544 7.92459 2.5544 7.92459C2.5544 7.92459 4.79168 13.2767 7.3249 15.9739C9.6477 18.4467 12.2855 18.2843 12.2855 18.2843Z" fill="#704770"/>
</svg>
